# xmcd
#
# Track frame offsets:
# 150
# 19872
# 37253
# 55492
# 67971
# 82622
# 102669
# 119920
# 133141
# 149509
# 163667
# 177721
# 191385
# 209183
#
# Disc length: 2963 seconds
#
#
# Revision: 0
# Processed by: cddbd v1.5.2PL0 Copyright (c) Steve Scherf et al.
# Submitted via: FreeRIP 2.95 
#
DISCID=e10b910e
DTITLE=Ilse de Lange - Love Hurts
DYEAR=1900
DGENRE=Country
TTITLE0=Flying Bird
TTITLE1=Lonely Too
TTITLE2=Just Like The Moon
TTITLE3=What Does Your Heart Say Now
TTITLE4=I'd Be Yours
TTITLE5=World Of Hurt
TTITLE6=All The Woman You'll Ever Need
TTITLE7=If You Had The Heart
TTITLE8=Flying Solo
TTITLE9=Old Tears
TTITLE10=I'm Not So Tough
TTITLE11=When We Don't Talk
TTITLE12=Tap Dancing On The Highwire
TTITLE13=You Are The Dream
EXTD=
EXTT0=
EXTT1=
EXTT2=
EXTT3=
EXTT4=
EXTT5=
EXTT6=
EXTT7=
EXTT8=
EXTT9=
EXTT10=
EXTT11=
EXTT12=
EXTT13=
PLAYORDER=
